<svg width="27" height="27" viewBox="0 0 27 27" fill="none" xmlns="http://www.w3.org/2000/svg">
<g id="&#235;&#141;&#176;&#236;&#139;&#156;&#235;&#179;&#180;&#235;&#147;&#156;">
<path id="Vector" d="M23.5 16V26M13.5 11.8333V26M3.5 21V26M5.16667 11.6365C4.72437 11.2407 4.1403 11 3.5 11C2.11928 11 1 12.1193 1 13.5C1 14.8807 2.11928 16 3.5 16C4.88072 16 6 14.8807 6 13.5C6 12.7597 5.67812 12.0943 5.16667 11.6365ZM5.16667 11.6365L11.6365 5.16667M11.6365 5.16667C12.0943 5.67812 12.7597 6 13.5 6C14.5885 6 15.5145 5.30433 15.8577 4.33333M11.6365 5.16667C11.2407 4.72437 11 4.1403 11 3.5C11 2.11928 12.1193 1 13.5 1C14.8807 1 16 2.11928 16 3.5C16 3.7922 15.9498 4.07268 15.8577 4.33333M15.8577 4.33333L21.0817 6.19732M21.0817 6.19732C21.0283 6.40038 21 6.61355 21 6.83333C21 8.21405 22.1193 9.33333 23.5 9.33333C24.8807 9.33333 26 8.21405 26 6.83333C26 5.45262 24.8807 4.33333 23.5 4.33333C22.339 4.33333 21.363 5.12463 21.0817 6.19732Z" stroke="white" stroke-width="1.5" stroke-linecap="round"/>
</g>
</svg>
