<svg width="24" height="27" viewBox="0 0 24 27" fill="none" xmlns="http://www.w3.org/2000/svg">
<g id="MainPage">
<path id="Vector" d="M23 22.929V10.3817C23 9.56722 22.6533 8.8048 22.0084 8.28865C20.3141 6.93226 16.8664 4.23637 14.1228 1.84013C12.8984 0.770698 11.0372 0.703137 9.79026 1.74747L2.09752 8.19044C1.40092 8.77386 1 9.6256 1 10.5221V22.929C1 24.6251 2.4071 26 4.14286 26H4.92857C6.66432 26 8.07143 24.6251 8.07143 22.929V19.8581C8.07143 18.162 9.47849 16.7871 11.2143 16.7871H12.7857C14.5215 16.7871 15.9286 18.162 15.9286 19.8581V22.929C15.9286 24.6251 17.3356 26 19.0714 26H19.8571C21.5929 26 23 24.6251 23 22.929Z" stroke="white" stroke-width="1.25" stroke-linecap="round"/>
</g>
</svg>
