<svg width="26" height="23" viewBox="0 0 26 23" fill="none" xmlns="http://www.w3.org/2000/svg">
<g id="Insight">
<path id="Vector" d="M5.24882 17.4706C5.43519 16.9688 5.21863 16.4252 4.77734 16.1141C4.57295 15.97 4.37122 15.8234 4.17558 15.6684C3.06275 14.7946 2.13835 13.7496 1.572 12.4212C0.652305 10.2681 0.859479 8.18959 2.06515 6.21325C3.31577 4.16337 5.172 2.8809 7.34621 2.06459C10.9501 0.71046 14.596 0.643457 18.2403 1.89042C20.3721 2.61965 22.2303 3.79005 23.6075 5.65714C25.5819 8.33684 25.444 11.7628 23.2747 14.3026C21.5168 16.3601 19.2433 17.4779 16.6943 18.0933C15.3104 18.4279 11.7297 17.8559 10.8085 18.6235C8.86793 20.2906 6.64138 21.3451 4.16814 21.8772C3.94314 21.9251 3.71251 21.9556 3.48467 21.9891C3.19592 22.0323 2.95967 21.9509 2.81153 21.6753C2.66435 21.3997 2.71777 21.149 2.90153 20.9211C3.11528 20.6571 3.3328 20.3948 3.56623 20.1517C4.30562 19.385 4.87731 18.4708 5.24882 17.4706Z" stroke="white" stroke-width="1.25" stroke-linecap="round"/>
</g>
</svg>
