<svg width="27" height="25" viewBox="0 0 27 25" fill="none" xmlns="http://www.w3.org/2000/svg">
<path id="Vector" d="M3.49715 16.694C2.05415 17.1045 1 18.4029 1 19.9412C1 21.8092 2.55457 23.3235 4.47222 23.3235C5.60793 23.3235 6.61629 22.7924 7.24979 21.9711M3.49715 16.694C3.80649 16.606 4.13369 16.5588 4.47222 16.5588C6.38987 16.5588 7.94444 18.0732 7.94444 19.9412C7.94444 20.7029 7.68597 21.4057 7.24979 21.9711M3.49715 16.694C3.22776 15.7925 3.08333 14.8391 3.08333 13.8529C3.08333 9.43432 5.98268 5.67533 10.0292 4.28276M7.24979 21.9711C8.99079 23.2451 11.1549 24 13.5 24C15.8451 24 18.0092 23.2451 19.7501 21.9711M10.0292 4.28276C10.0283 4.31584 10.0278 4.34904 10.0278 4.38235C10.0278 6.25037 11.5824 7.76471 13.5 7.76471C15.4176 7.76471 16.9722 6.25037 16.9722 4.38235C16.9722 4.34904 16.9717 4.31584 16.9707 4.28276M10.0292 4.28276C10.0833 2.46081 11.6165 1 13.5 1C15.3835 1 16.9167 2.4608 16.9707 4.28276M19.7501 21.9711C19.314 21.4057 19.0556 20.7029 19.0556 19.9412C19.0556 18.0732 20.6101 16.5588 22.5278 16.5588C22.8663 16.5588 23.1935 16.606 23.5029 16.694M19.7501 21.9711C20.3837 22.7924 21.3921 23.3235 22.5278 23.3235C24.4454 23.3235 26 21.8092 26 19.9412C26 18.4029 24.9458 17.1045 23.5029 16.694M16.9707 4.28276C21.0174 5.67533 23.9167 9.43432 23.9167 13.8529C23.9167 14.8391 23.7722 15.7925 23.5029 16.694" stroke="white" stroke-width="1.25" stroke-linecap="round"/>
</svg>
